M48
METRIC,LZ,000.000
;FILE_FORMAT=3:3
;TYPE=PLATED
;Layer: PTH_Through
;EasyEDA v6.5.15, 2022-10-07 13:48:07
;7ec79526355f426bb91a475ea7be51f8,10
;Gerber Generator version 0.2
;Holesize 1 = 0.305 mm
T01C0.305
;Holesize 2 = 0.701 mm
T02C0.701
;Holesize 3 = 0.800 mm
T03C0.800
;Holesize 4 = 0.889 mm
T04C0.889
;Holesize 5 = 1.000 mm
T05C1.000
;Holesize 6 = 1.301 mm
T06C1.301
%
G05
G90
T01
X015443Y059088
T02
X010414Y064511G85X010414Y064711
X010414Y062511G85X010414Y062711
X010414Y060511G85X010414Y060711
X010014Y058511G85X010814Y058511
X010014Y066711G85X010814Y066711
T03
X091440Y042545
X091440Y045085
X091440Y047625
X091440Y050165
X091440Y052705
X091440Y055245
X091440Y057785
X091440Y060325
X083820Y042545
X083820Y045085
X083820Y047625
X083820Y050165
X083820Y052705
X083820Y055245
X083820Y057785
X083820Y060325
T04
X096774Y050419
T05
X020987Y050165
X024987Y050165
X021971Y062992
X019431Y062992
X016891Y062992
T06
X013335Y042763
X013335Y037755
M30
