G04 Layer: BottomLayer*
G04 EasyEDA v6.5.15, 2022-10-07 13:48:07*
G04 7ec79526355f426bb91a475ea7be51f8,10*
G04 Gerber Generator version 0.2*
G04 Scale: 100 percent, Rotated: No, Reflected: No *
G04 Dimensions in millimeters *
G04 leading zeros omitted , absolute positions ,4 integer and 5 decimal *
%FSLAX45Y45*%
%MOMM*%

%ADD10C,0.2540*%
%ADD11R,1.5748X1.5748*%
%ADD12C,1.8000*%
%ADD13C,2.0000*%
%ADD14O,1.7999964X1.7999964*%
%ADD15R,1.8000X1.8000*%
%ADD16O,0.9999979999999999X1.199896*%
%ADD17O,1.7999964X0.9999979999999999*%
%ADD18O,1.82499X1.4599920000000002*%
%ADD19C,0.6096*%

%LPD*%
D10*
X8382000Y4254500D02*
G01*
X8991091Y4863592D01*
X8991091Y5117592D01*
X9144000Y5270500D01*
X9144000Y5778500D02*
G01*
X9024670Y5659170D01*
X9024670Y5389829D01*
X9144000Y5270500D01*
X2197100Y6299200D02*
G01*
X2217800Y6278498D01*
X2217800Y4659756D01*
X1333500Y3775455D01*
X1041400Y6061227D02*
G01*
X1333500Y5769127D01*
X1333500Y4276344D01*
X2498699Y5016500D02*
G01*
X2498699Y6165418D01*
X2234768Y6429349D01*
X1878228Y6429349D01*
X1807057Y6358178D01*
X1807057Y6299200D01*
X1689100Y6299200D02*
G01*
X1807057Y6299200D01*
X1041400Y6261074D02*
G01*
X2098700Y5203774D01*
X2098700Y5016500D01*
X9144000Y5524500D02*
G01*
X9570694Y5097805D01*
X9570694Y5041900D01*
X9677400Y5041900D02*
G01*
X9570694Y5041900D01*
X1544320Y5908751D02*
G01*
X1934768Y6299200D01*
X1943100Y6299200D01*
D11*
G01*
X9677400Y5041900D03*
D12*
G01*
X2098700Y5016500D03*
G01*
X2498699Y5016500D03*
D13*
G01*
X1333500Y4276344D03*
G01*
X1333500Y3775455D03*
D14*
G01*
X2197100Y6299200D03*
G01*
X1943100Y6299200D03*
D15*
G01*
X1689100Y6299200D03*
D16*
G01*
X1041400Y6460962D03*
G01*
X1041400Y6261064D03*
G01*
X1041400Y6061217D03*
D17*
G01*
X1041400Y5851159D03*
G01*
X1041400Y6671045D03*
D18*
G01*
X9144000Y4254500D03*
G01*
X9144000Y4508500D03*
G01*
X9144000Y4762500D03*
G01*
X9144000Y5016500D03*
G01*
X9144000Y5270500D03*
G01*
X9144000Y5524500D03*
G01*
X9144000Y5778500D03*
G01*
X9144000Y6032500D03*
G01*
X8382000Y4254500D03*
G01*
X8382000Y4508500D03*
G01*
X8382000Y4762500D03*
G01*
X8382000Y5016500D03*
G01*
X8382000Y5270500D03*
G01*
X8382000Y5524500D03*
G01*
X8382000Y5778500D03*
G01*
X8382000Y6032500D03*
D19*
G01*
X1544320Y5908751D03*
M02*
