G04 Layer: TopPasteMaskLayer*
G04 EasyEDA v6.5.15, 2022-10-07 13:48:07*
G04 7ec79526355f426bb91a475ea7be51f8,10*
G04 Gerber Generator version 0.2*
G04 Scale: 100 percent, Rotated: No, Reflected: No *
G04 Dimensions in millimeters *
G04 leading zeros omitted , absolute positions ,4 integer and 5 decimal *
%FSLAX45Y45*%
%MOMM*%

%ADD10R,0.8999X1.0000*%

%LPD*%
G36*
X1182522Y5518708D02*
G01*
X1177493Y5513679D01*
X1177493Y5490921D01*
X1214526Y5490921D01*
X1214526Y5457901D01*
X1177493Y5457901D01*
X1177493Y5433720D01*
X1182522Y5428691D01*
X1262481Y5428691D01*
X1267510Y5433720D01*
X1267510Y5513679D01*
X1262481Y5518708D01*
G37*
G36*
X1023518Y5518708D02*
G01*
X1018489Y5513679D01*
X1018489Y5433720D01*
X1023518Y5428691D01*
X1102512Y5428691D01*
X1107490Y5433720D01*
X1107490Y5457901D01*
X1069492Y5457901D01*
X1069492Y5490921D01*
X1107490Y5490921D01*
X1107490Y5513679D01*
X1102512Y5518708D01*
G37*
G36*
X1195222Y4820208D02*
G01*
X1190193Y4815179D01*
X1190193Y4792421D01*
X1227226Y4792421D01*
X1227226Y4759401D01*
X1190193Y4759401D01*
X1190193Y4735220D01*
X1195222Y4730191D01*
X1275181Y4730191D01*
X1280210Y4735220D01*
X1280210Y4815179D01*
X1275181Y4820208D01*
G37*
G36*
X1036218Y4820208D02*
G01*
X1031189Y4815179D01*
X1031189Y4735220D01*
X1036218Y4730191D01*
X1115212Y4730191D01*
X1120190Y4735220D01*
X1120190Y4759401D01*
X1082192Y4759401D01*
X1082192Y4792421D01*
X1120190Y4792421D01*
X1120190Y4815179D01*
X1115212Y4820208D01*
G37*
G36*
X1182522Y5163108D02*
G01*
X1177493Y5158079D01*
X1177493Y5135321D01*
X1214526Y5135321D01*
X1214526Y5102301D01*
X1177493Y5102301D01*
X1177493Y5078120D01*
X1182522Y5073091D01*
X1262481Y5073091D01*
X1267510Y5078120D01*
X1267510Y5158079D01*
X1262481Y5163108D01*
G37*
G36*
X1023518Y5163108D02*
G01*
X1018489Y5158079D01*
X1018489Y5078120D01*
X1023518Y5073091D01*
X1102512Y5073091D01*
X1107490Y5078120D01*
X1107490Y5102301D01*
X1069492Y5102301D01*
X1069492Y5135321D01*
X1107490Y5135321D01*
X1107490Y5158079D01*
X1102512Y5163108D01*
G37*
D10*
G01*
X2409096Y4140200D03*
G01*
X2239093Y4140200D03*
G01*
X2421796Y5854700D03*
G01*
X2251793Y5854700D03*
M02*
