G04 Layer: TopSilkscreenLayer*
G04 EasyEDA v6.5.15, 2022-10-07 13:48:07*
G04 7ec79526355f426bb91a475ea7be51f8,10*
G04 Gerber Generator version 0.2*
G04 Scale: 100 percent, Rotated: No, Reflected: No *
G04 Dimensions in millimeters *
G04 leading zeros omitted , absolute positions ,4 integer and 5 decimal *
%FSLAX45Y45*%
%MOMM*%

%ADD10C,0.1524*%
%ADD11C,0.2032*%
%ADD12C,0.2030*%
%ADD13C,0.1500*%
%ADD14C,0.2540*%
%ADD15C,0.3000*%
%ADD16C,0.0192*%

%LPD*%
D10*
X9729470Y5299455D02*
G01*
X9729470Y5216397D01*
X9724136Y5200650D01*
X9719056Y5195570D01*
X9708641Y5190489D01*
X9698227Y5190489D01*
X9687813Y5195570D01*
X9682479Y5200650D01*
X9677400Y5216397D01*
X9677400Y5226812D01*
X9763759Y5278628D02*
G01*
X9773920Y5283962D01*
X9789668Y5299455D01*
X9789668Y5190489D01*
X2273300Y5614415D02*
G01*
X2273300Y5505450D01*
X2273300Y5614415D02*
G01*
X2320036Y5614415D01*
X2335529Y5609336D01*
X2340863Y5604002D01*
X2345943Y5593587D01*
X2345943Y5583173D01*
X2340863Y5572760D01*
X2335529Y5567679D01*
X2320036Y5562600D01*
X2273300Y5562600D02*
G01*
X2320036Y5562600D01*
X2335529Y5557265D01*
X2340863Y5552186D01*
X2345943Y5541771D01*
X2345943Y5526023D01*
X2340863Y5515610D01*
X2335529Y5510529D01*
X2320036Y5505450D01*
X2273300Y5505450D01*
X2380234Y5614415D02*
G01*
X2380234Y5536437D01*
X2385568Y5520944D01*
X2395981Y5510529D01*
X2411475Y5505450D01*
X2421890Y5505450D01*
X2437384Y5510529D01*
X2447797Y5520944D01*
X2453131Y5536437D01*
X2453131Y5614415D01*
X2560065Y5614415D02*
G01*
X2487422Y5505450D01*
X2487422Y5614415D02*
G01*
X2560065Y5614415D01*
X2487422Y5505450D02*
G01*
X2560065Y5505450D01*
X2667000Y5614415D02*
G01*
X2594356Y5505450D01*
X2594356Y5614415D02*
G01*
X2667000Y5614415D01*
X2594356Y5505450D02*
G01*
X2667000Y5505450D01*
X2701290Y5614415D02*
G01*
X2701290Y5505450D01*
X2701290Y5614415D02*
G01*
X2768854Y5614415D01*
X2701290Y5562600D02*
G01*
X2742945Y5562600D01*
X2701290Y5505450D02*
G01*
X2768854Y5505450D01*
X2803143Y5614415D02*
G01*
X2803143Y5505450D01*
X2803143Y5614415D02*
G01*
X2849879Y5614415D01*
X2865627Y5609336D01*
X2870708Y5604002D01*
X2876041Y5593587D01*
X2876041Y5583173D01*
X2870708Y5572760D01*
X2865627Y5567679D01*
X2849879Y5562600D01*
X2803143Y5562600D01*
X2839720Y5562600D02*
G01*
X2876041Y5505450D01*
X2910331Y5593587D02*
G01*
X2920745Y5598921D01*
X2936240Y5614415D01*
X2936240Y5505450D01*
D11*
X1935594Y5052496D02*
G01*
X1935594Y4970708D01*
X1894700Y5011602D02*
G01*
X1976488Y5011602D01*
D10*
X2314125Y4374718D02*
G01*
X2314125Y4265752D01*
X2314125Y4265752D02*
G01*
X2376355Y4265752D01*
X2410645Y4374718D02*
G01*
X2410645Y4265752D01*
X2410645Y4374718D02*
G01*
X2478209Y4374718D01*
X2410645Y4322902D02*
G01*
X2452301Y4322902D01*
X2410645Y4265752D02*
G01*
X2478209Y4265752D01*
X2512499Y4374718D02*
G01*
X2512499Y4265752D01*
X2512499Y4374718D02*
G01*
X2549075Y4374718D01*
X2564569Y4369638D01*
X2574983Y4359224D01*
X2580063Y4348810D01*
X2585397Y4333062D01*
X2585397Y4307154D01*
X2580063Y4291660D01*
X2574983Y4281246D01*
X2564569Y4270832D01*
X2549075Y4265752D01*
X2512499Y4265752D01*
X2619687Y4353890D02*
G01*
X2630101Y4359224D01*
X2645595Y4374718D01*
X2645595Y4265752D01*
X2326825Y6089218D02*
G01*
X2326825Y5980252D01*
X2326825Y5980252D02*
G01*
X2389055Y5980252D01*
X2423345Y6089218D02*
G01*
X2423345Y5980252D01*
X2423345Y6089218D02*
G01*
X2490909Y6089218D01*
X2423345Y6037402D02*
G01*
X2465001Y6037402D01*
X2423345Y5980252D02*
G01*
X2490909Y5980252D01*
X2525199Y6089218D02*
G01*
X2525199Y5980252D01*
X2525199Y6089218D02*
G01*
X2561775Y6089218D01*
X2577269Y6084138D01*
X2587683Y6073724D01*
X2592763Y6063310D01*
X2598097Y6047562D01*
X2598097Y6021654D01*
X2592763Y6006160D01*
X2587683Y5995746D01*
X2577269Y5985332D01*
X2561775Y5980252D01*
X2525199Y5980252D01*
X2637467Y6063310D02*
G01*
X2637467Y6068390D01*
X2642801Y6078804D01*
X2647881Y6084138D01*
X2658295Y6089218D01*
X2679123Y6089218D01*
X2689537Y6084138D01*
X2694617Y6078804D01*
X2699951Y6068390D01*
X2699951Y6057976D01*
X2694617Y6047562D01*
X2684203Y6032068D01*
X2632387Y5980252D01*
X2705031Y5980252D01*
X1929892Y4049776D02*
G01*
X1820926Y4049776D01*
X1929892Y4049776D02*
G01*
X1929892Y4003039D01*
X1924812Y3987545D01*
X1919478Y3982212D01*
X1909063Y3977131D01*
X1893570Y3977131D01*
X1883155Y3982212D01*
X1878076Y3987545D01*
X1872742Y4003039D01*
X1872742Y4049776D01*
X1909063Y3942842D02*
G01*
X1914397Y3932428D01*
X1929892Y3916679D01*
X1820926Y3916679D01*
X1936241Y6719315D02*
G01*
X1925828Y6714236D01*
X1915413Y6703821D01*
X1910079Y6693408D01*
X1905000Y6677660D01*
X1905000Y6651752D01*
X1910079Y6636258D01*
X1915413Y6625844D01*
X1925828Y6615429D01*
X1936241Y6610350D01*
X1957070Y6610350D01*
X1967229Y6615429D01*
X1977643Y6625844D01*
X1982977Y6636258D01*
X1988058Y6651752D01*
X1988058Y6677660D01*
X1982977Y6693408D01*
X1977643Y6703821D01*
X1967229Y6714236D01*
X1957070Y6719315D01*
X1936241Y6719315D01*
X1951736Y6630923D02*
G01*
X1982977Y6599936D01*
X2022347Y6698487D02*
G01*
X2032761Y6703821D01*
X2048509Y6719315D01*
X2048509Y6610350D01*
X1143000Y5690615D02*
G01*
X1143000Y5581650D01*
X1143000Y5690615D02*
G01*
X1189736Y5690615D01*
X1205229Y5685536D01*
X1210563Y5680202D01*
X1215644Y5669787D01*
X1215644Y5659373D01*
X1210563Y5648960D01*
X1205229Y5643879D01*
X1189736Y5638800D01*
X1143000Y5638800D01*
X1179321Y5638800D02*
G01*
X1215644Y5581650D01*
X1249934Y5669787D02*
G01*
X1260347Y5675121D01*
X1276095Y5690615D01*
X1276095Y5581650D01*
X1155700Y4992115D02*
G01*
X1155700Y4883150D01*
X1155700Y4992115D02*
G01*
X1202436Y4992115D01*
X1217929Y4987036D01*
X1223263Y4981702D01*
X1228344Y4971287D01*
X1228344Y4960873D01*
X1223263Y4950460D01*
X1217929Y4945379D01*
X1202436Y4940300D01*
X1155700Y4940300D01*
X1192021Y4940300D02*
G01*
X1228344Y4883150D01*
X1267968Y4966207D02*
G01*
X1267968Y4971287D01*
X1273047Y4981702D01*
X1278381Y4987036D01*
X1288795Y4992115D01*
X1309370Y4992115D01*
X1319784Y4987036D01*
X1325118Y4981702D01*
X1330197Y4971287D01*
X1330197Y4960873D01*
X1325118Y4950460D01*
X1314704Y4934965D01*
X1262634Y4883150D01*
X1335531Y4883150D01*
X1143000Y5335015D02*
G01*
X1143000Y5226050D01*
X1143000Y5335015D02*
G01*
X1189736Y5335015D01*
X1205229Y5329936D01*
X1210563Y5324602D01*
X1215644Y5314187D01*
X1215644Y5303773D01*
X1210563Y5293360D01*
X1205229Y5288279D01*
X1189736Y5283200D01*
X1143000Y5283200D01*
X1179321Y5283200D02*
G01*
X1215644Y5226050D01*
X1260347Y5335015D02*
G01*
X1317497Y5335015D01*
X1286510Y5293360D01*
X1302004Y5293360D01*
X1312418Y5288279D01*
X1317497Y5283200D01*
X1322831Y5267452D01*
X1322831Y5257037D01*
X1317497Y5241544D01*
X1307084Y5231129D01*
X1291589Y5226050D01*
X1276095Y5226050D01*
X1260347Y5231129D01*
X1255268Y5236210D01*
X1249934Y5246623D01*
X1446021Y6213820D02*
G01*
X1456436Y6224234D01*
X1461515Y6239728D01*
X1461515Y6260556D01*
X1456436Y6276050D01*
X1446021Y6286464D01*
X1435607Y6286464D01*
X1425194Y6281384D01*
X1419860Y6276050D01*
X1414779Y6265636D01*
X1404365Y6234394D01*
X1399286Y6224234D01*
X1393952Y6218900D01*
X1383537Y6213820D01*
X1368044Y6213820D01*
X1357629Y6224234D01*
X1352550Y6239728D01*
X1352550Y6260556D01*
X1357629Y6276050D01*
X1368044Y6286464D01*
X1461515Y6179530D02*
G01*
X1352550Y6153368D01*
X1461515Y6127460D02*
G01*
X1352550Y6153368D01*
X1461515Y6127460D02*
G01*
X1352550Y6101552D01*
X1461515Y6075644D02*
G01*
X1352550Y6101552D01*
X1440687Y6041354D02*
G01*
X1446021Y6030940D01*
X1461515Y6015192D01*
X1352550Y6015192D01*
X9360915Y5181600D02*
G01*
X9282938Y5181600D01*
X9267443Y5176520D01*
X9257029Y5166105D01*
X9251950Y5150357D01*
X9251950Y5139944D01*
X9257029Y5124450D01*
X9267443Y5114036D01*
X9282938Y5108955D01*
X9360915Y5108955D01*
X9340088Y5074665D02*
G01*
X9345422Y5064252D01*
X9360915Y5048504D01*
X9251950Y5048504D01*
G36*
X2313076Y4176217D02*
G01*
X2312111Y4104233D01*
X2338070Y4140200D01*
G37*
G36*
X2325776Y5890717D02*
G01*
X2324811Y5818733D01*
X2350770Y5854700D01*
G37*
D11*
X9804400Y4914900D02*
G01*
X9550400Y4914900D01*
X9550400Y5168900D01*
X9804400Y5168900D01*
X9804400Y4978400D01*
D12*
X9804400Y4914900D02*
G01*
X9804400Y4978400D01*
D13*
X2361100Y4213199D02*
G01*
X2476098Y4213199D01*
X2476098Y4068201D01*
X2356098Y4068201D01*
X2294100Y4067200D02*
G01*
X2170099Y4067200D01*
X2170099Y4212198D01*
X2294100Y4212198D01*
X2476098Y4213199D02*
G01*
X2479100Y4213199D01*
X2499100Y4193199D01*
X2499100Y4091200D01*
X2496098Y4088201D01*
X2476098Y4068201D01*
X2373800Y5927699D02*
G01*
X2488798Y5927699D01*
X2488798Y5782701D01*
X2368798Y5782701D01*
X2306800Y5781700D02*
G01*
X2182799Y5781700D01*
X2182799Y5926698D01*
X2306800Y5926698D01*
X2488798Y5927699D02*
G01*
X2491800Y5927699D01*
X2511800Y5907699D01*
X2511800Y5805700D01*
X2508798Y5802701D01*
X2488798Y5782701D01*
D14*
X1756562Y3505377D02*
G01*
X856564Y3505377D01*
X1753565Y4555362D02*
G01*
X853567Y4555362D01*
X1756562Y4555362D02*
G01*
X1756562Y3505377D01*
X1573580Y4558360D02*
G01*
X1573580Y3508375D01*
X1696567Y4555362D02*
G01*
X1696567Y3505377D01*
X853567Y4555362D02*
G01*
X853567Y3505377D01*
X2141093Y6149212D02*
G01*
X1745106Y6149212D01*
D10*
X1185621Y5407639D02*
G01*
X1281508Y5407639D01*
X1281508Y5539760D01*
X1185621Y5539760D01*
X1100378Y5407639D02*
G01*
X1004491Y5407639D01*
X1004491Y5539760D01*
X1100378Y5539760D01*
X1198321Y4709139D02*
G01*
X1294208Y4709139D01*
X1294208Y4841260D01*
X1198321Y4841260D01*
X1113078Y4709139D02*
G01*
X1017191Y4709139D01*
X1017191Y4841260D01*
X1113078Y4841260D01*
X1185621Y5052039D02*
G01*
X1281508Y5052039D01*
X1281508Y5184160D01*
X1185621Y5184160D01*
X1100378Y5052039D02*
G01*
X1004491Y5052039D01*
X1004491Y5184160D01*
X1100378Y5184160D01*
D14*
X1261389Y6691061D02*
G01*
X1261389Y5831067D01*
X821410Y6691061D02*
G01*
X821410Y5831067D01*
X1261389Y5831067D02*
G01*
X1151704Y5831067D01*
X931095Y5831067D02*
G01*
X821410Y5831067D01*
X1261389Y6691061D02*
G01*
X1151704Y6691061D01*
X931095Y6691061D02*
G01*
X821410Y6691061D01*
D10*
X8496109Y6116370D02*
G01*
X9029890Y6116370D01*
X9029890Y4170629D01*
X8496109Y4170629D01*
X8496109Y6116370D01*
D14*
G75*
G01*
X2157476Y6425184D02*
G03*
X1725953Y6420345I-214376J-125982D01*
D10*
G75*
G01*
X8842375Y6116371D02*
G02*
X8683625Y6116371I-79375J0D01*
D14*
G75*
G01
X2748712Y5016500D02*
G03X2748712Y5016500I-450012J0D01*
G75*
G01
X2372766Y5016500D02*
G03X2372766Y5016500I-74066J0D01*
D15*
G75*
G01
X8397011Y6150737D02*
G03X8397011Y6150737I-15011J0D01*
M02*
