G04 Layer: TopLayer*
G04 EasyEDA v6.5.15, 2022-10-07 13:48:07*
G04 7ec79526355f426bb91a475ea7be51f8,10*
G04 Gerber Generator version 0.2*
G04 Scale: 100 percent, Rotated: No, Reflected: No *
G04 Dimensions in millimeters *
G04 leading zeros omitted , absolute positions ,4 integer and 5 decimal *
%FSLAX45Y45*%
%MOMM*%

%AMMACRO1*21,1,$1,$2,0,0,$3*%
%ADD10C,0.2540*%
%ADD11R,0.8999X1.0000*%
%ADD12MACRO1,0.864X0.8065X90.0000*%
%ADD13R,1.5748X1.5748*%
%ADD14C,1.8000*%
%ADD15C,2.0000*%
%ADD16O,1.7999964X1.7999964*%
%ADD17R,1.8000X1.8000*%
%ADD18O,0.9999979999999999X1.199896*%
%ADD19O,1.7999964X0.9999979999999999*%
%ADD20O,1.82499X1.4599920000000002*%
%ADD21C,0.6096*%

%LPD*%
D10*
X8382000Y5524500D02*
G01*
X1337411Y5524500D01*
X1286611Y5473700D01*
X1218336Y5473700D02*
G01*
X1286611Y5473700D01*
X1080363Y4775200D02*
G01*
X1080363Y4846370D01*
X1080363Y4846370D02*
G01*
X1136091Y4902098D01*
X1136091Y5514720D01*
X1471574Y5850204D01*
X2174316Y5850204D01*
X2178811Y5854700D01*
X2251786Y5854700D02*
G01*
X2178811Y5854700D01*
X2166111Y4140200D02*
G01*
X1604238Y4702073D01*
X1019327Y4702073D01*
X1011936Y4709464D01*
X1011936Y4991201D01*
X1067663Y5046929D01*
X2239086Y4140200D02*
G01*
X2166111Y4140200D01*
X1067663Y5118100D02*
G01*
X1067663Y5046929D01*
X8382000Y4254500D02*
G01*
X7902956Y3775455D01*
X1333500Y3775455D01*
X2348814Y5854700D02*
G01*
X2348814Y5909437D01*
X2088540Y6169710D01*
X1877568Y6169710D01*
X1807057Y6240221D01*
X1807057Y6299200D01*
X2421788Y5854700D02*
G01*
X2348814Y5854700D01*
X1689100Y6299200D02*
G01*
X1807057Y6299200D01*
X2482037Y4140200D02*
G01*
X2482037Y4999837D01*
X2498699Y5016500D01*
X2409088Y4140200D02*
G01*
X2482037Y4140200D01*
X1218336Y5118100D02*
G01*
X1286611Y5118100D01*
X1299311Y4775200D02*
G01*
X1299311Y4927600D01*
X1388211Y5016500D01*
X1286611Y5118100D02*
G01*
X1388211Y5016500D01*
X1388211Y5016500D02*
G01*
X2098700Y5016500D01*
X1231036Y4775200D02*
G01*
X1299311Y4775200D01*
X1041400Y6261074D02*
G01*
X1198702Y6418376D01*
X8758123Y6418376D01*
X9144000Y6032500D01*
X1067663Y5544870D02*
G01*
X1431544Y5908751D01*
X1544320Y5908751D01*
X1067663Y5473700D02*
G01*
X1067663Y5544870D01*
D11*
G01*
X2409096Y4140200D03*
G01*
X2239093Y4140200D03*
G01*
X2421796Y5854700D03*
G01*
X2251793Y5854700D03*
D12*
G01*
X1218324Y5473700D03*
G01*
X1067675Y5473700D03*
G01*
X1231024Y4775200D03*
G01*
X1080375Y4775200D03*
G01*
X1218324Y5118100D03*
G01*
X1067675Y5118100D03*
D13*
G01*
X9677400Y5041900D03*
D14*
G01*
X2098700Y5016500D03*
G01*
X2498699Y5016500D03*
D15*
G01*
X1333500Y4276344D03*
G01*
X1333500Y3775455D03*
D16*
G01*
X2197100Y6299200D03*
G01*
X1943100Y6299200D03*
D17*
G01*
X1689100Y6299200D03*
D18*
G01*
X1041400Y6460962D03*
G01*
X1041400Y6261064D03*
G01*
X1041400Y6061217D03*
D19*
G01*
X1041400Y5851159D03*
G01*
X1041400Y6671045D03*
D20*
G01*
X9144000Y4254500D03*
G01*
X9144000Y4508500D03*
G01*
X9144000Y4762500D03*
G01*
X9144000Y5016500D03*
G01*
X9144000Y5270500D03*
G01*
X9144000Y5524500D03*
G01*
X9144000Y5778500D03*
G01*
X9144000Y6032500D03*
G01*
X8382000Y4254500D03*
G01*
X8382000Y4508500D03*
G01*
X8382000Y4762500D03*
G01*
X8382000Y5016500D03*
G01*
X8382000Y5270500D03*
G01*
X8382000Y5524500D03*
G01*
X8382000Y5778500D03*
G01*
X8382000Y6032500D03*
D21*
G01*
X1544320Y5908751D03*
M02*
